<svg width="16" height="16" viewBox="0 0 16 16" fill="none" xmlns="http://www.w3.org/2000/svg">
    <path d="M3.03372 14.1C2.73372 14.1 2.46984 13.9861 2.24206 13.7584C2.01428 13.5306 1.90039 13.2667 1.90039 12.9667V3.03336C1.90039 2.72225 2.01428 2.45558 2.24206 2.23336C2.46984 2.01114 2.73372 1.90002 3.03372 1.90002H12.9671C13.2782 1.90002 13.5448 2.01114 13.7671 2.23336C13.9893 2.45558 14.1004 2.72225 14.1004 3.03336V12.9667C14.1004 13.2667 13.9893 13.5306 13.7671 13.7584C13.5448 13.9861 13.2782 14.1 12.9671 14.1H3.03372Z" fill="#DC0A2D"/>
    <path fill-rule="evenodd" clip-rule="evenodd" d="M7.18372 10.4584C7.11706 10.4861 7.05039 10.5 6.98372 10.5C6.90595 10.5 6.83372 10.4861 6.76706 10.4584C6.70039 10.4306 6.63928 10.3834 6.58372 10.3167L4.63372 8.36669C4.52261 8.25558 4.46706 8.12225 4.46706 7.96669C4.46706 7.81114 4.52261 7.6778 4.63372 7.56669C4.74484 7.45558 4.87817 7.4028 5.03372 7.40836C5.18928 7.41391 5.31706 7.46669 5.41706 7.56669L6.98372 9.11669L10.6504 5.45002C10.7615 5.33891 10.8948 5.28336 11.0504 5.28336C11.2059 5.28336 11.3393 5.33891 11.4504 5.45002C11.5615 5.56114 11.6143 5.69725 11.6087 5.85836C11.6032 6.01947 11.5504 6.15002 11.4504 6.25002L7.36706 10.3167C7.3115 10.3834 7.25039 10.4306 7.18372 10.4584Z" fill="white"/>
</svg>
