<svg width="16" height="16" viewBox="0 0 16 16" fill="none" xmlns="http://www.w3.org/2000/svg">
    <path d="M8.00006 11.1C8.86673 11.1 9.60007 10.8 10.2001 10.2C10.8001 9.6 11.1001 8.86667 11.1001 8C11.1001 7.13334 10.8001 6.4 10.2001 5.8C9.60007 5.2 8.86673 4.9 8.00006 4.9C7.1334 4.9 6.40006 5.2 5.80007 5.8C5.20007 6.4 4.90007 7.13334 4.90007 8C4.90007 8.86667 5.20007 9.6 5.80007 10.2C6.40006 10.8 7.1334 11.1 8.00006 11.1ZM8.00006 14.7667C7.07784 14.7667 6.20284 14.5889 5.37507 14.2333C4.54729 13.8778 3.82784 13.3944 3.21673 12.7833C2.60562 12.1722 2.12229 11.4556 1.76673 10.6333C1.41118 9.81112 1.2334 8.93334 1.2334 8C1.2334 7.06667 1.41118 6.18612 1.76673 5.35834C2.12229 4.53056 2.60562 3.81389 3.21673 3.20834C3.82784 2.60278 4.54451 2.12223 5.36673 1.76667C6.18895 1.41112 7.06673 1.23334 8.00006 1.23334C8.9334 1.23334 9.81395 1.41112 10.6417 1.76667C11.4695 2.12223 12.1862 2.60278 12.7917 3.20834C13.3973 3.81389 13.8778 4.52778 14.2334 5.35C14.589 6.17223 14.7667 7.05556 14.7667 8C14.7667 8.93334 14.589 9.81112 14.2334 10.6333C13.8778 11.4556 13.3973 12.1722 12.7917 12.7833C12.1862 13.3944 11.4723 13.8778 10.6501 14.2333C9.82784 14.5889 8.94451 14.7667 8.00006 14.7667ZM8.00006 13.6333C9.56673 13.6333 10.8973 13.0833 11.9917 11.9833C13.0862 10.8833 13.6334 9.55556 13.6334 8C13.6334 6.43334 13.0862 5.10278 11.9917 4.00834C10.8973 2.91389 9.56673 2.36667 8.00006 2.36667C6.44451 2.36667 5.11673 2.91389 4.01673 4.00834C2.91673 5.10278 2.36673 6.43334 2.36673 8C2.36673 9.55556 2.91673 10.8833 4.01673 11.9833C5.11673 13.0833 6.44451 13.6333 8.00006 13.6333Z" fill="#DC0A2D"/>
</svg>
